<svg xmlns="http://www.w3.org/2000/svg" version="1.1" xmlns:xlink="http://www.w3.org/1999/xlink" viewBox="0 0 200 200" width="200" height="200"><metadata><rdf:RDF xmlns:rdf="http://www.w3.org/1999/02/22-rdf-syntax-ns#" xmlns:dc="http://purl.org/dc/elements/1.1/"><rdf:Description><dc:creator>RealFaviconGenerator</dc:creator><dc:source>https://realfavicongenerator.net</dc:source></rdf:Description></rdf:RDF></metadata><rect width="200" height="200" fill="url('#gradient')"></rect><defs><linearGradient id="gradient" gradientTransform="rotate(45 0.5 0.5)"><stop offset="0%" stop-color="#e0e0e0"></stop><stop offset="100%" stop-color="#4b452f"></stop></linearGradient></defs><g><g fill="#211e23" transform="matrix(2.0650712557139017,0,0,2.0650712557139017,22.784407893025964,114.6820317703282)" stroke="#ffffff" stroke-width="0.5"><path d="M10.03-8.30L10.03-5.66L4.50-5.66L4.50 0L1.07 0L1.07-14.22L10.59-14.22L10.59-11.57L4.50-11.57L4.50-8.30L10.03-8.30ZM19.80 0L17.29-5.02L15.44-5.02L15.44 0L12.01 0L12.01-14.22L17.61-14.22Q20.14-14.22 21.56-13.10Q22.99-11.97 22.99-9.92L22.99-9.92Q22.99-8.44 22.39-7.46Q21.79-6.48 20.51-5.88L20.51-5.88L23.48-0.15L23.48 0L19.80 0ZM15.44-11.57L15.44-7.67L17.61-7.67Q18.58-7.67 19.08-8.18Q19.57-8.69 19.57-9.61Q19.57-10.53 19.07-11.05Q18.57-11.57 17.61-11.57L17.61-11.57L15.44-11.57ZM33.88-8.57L33.88-6.03L28.49-6.03L28.49-2.64L34.85-2.64L34.85 0L25.06 0L25.06-14.22L34.87-14.22L34.87-11.57L28.49-11.57L28.49-8.57L33.88-8.57ZM45.07-8.57L45.07-6.03L39.68-6.03L39.68-2.64L46.04-2.64L46.04 0L36.25 0L36.25-14.22L46.06-14.22L46.06-11.57L39.68-11.57L39.68-8.57L45.07-8.57ZM53.72-7.40L53.72-4.85L47.85-4.85L47.85-7.40L53.72-7.40ZM65.34 0L64.51-2.66L59.81-2.66L58.99 0L55.33 0L60.55-14.22L63.77-14.22L69.02 0L65.34 0ZM62.16-10.23L60.63-5.30L63.69-5.30L62.16-10.23ZM73.71-14.22L73.71 0L70.29 0L70.29-14.22L73.71-14.22Z"></path></g></g></svg>